<svg xmlns="http://www.w3.org/2000/svg" viewBox="0 0 830.29 290.1"><defs><style>.cls-1{fill:#fff;}.cls-2{fill:none;}</style></defs><title>skool_logo_secondary</title><g id="Layer_2" data-name="Layer 2"><g id="Layer_1-2" data-name="Layer 1"><path class="cls-1" d="M26.45,183.84c16.62,20.13,53.13,21.07,54.3,3.28.47-9.36-14.75-14.75-28.32-16.62-26.68-4.21-51-21.07-51-52.67,0-32.54,29.49-49.62,59.92-49.62,20.13,0,39.56,5.62,56.65,26.45L90.58,115.72c-17.32-18.49-47-17.79-47.75,1.4.47,8,9.13,12.64,22,15.45C94.33,138,123.82,148.26,122,189c-1.4,32.07-35.11,49.62-65.54,49.62-19.9,0-41-10.07-56.41-30Z"/><polygon class="cls-2" points="68.29 0.52 102.03 42 735.29 42 735.29 257.08 109.07 257.08 83.86 290.1 830.29 290.1 830.29 0 68.29 0.52"/><path class="cls-1" d="M525.41,106.36c-13.11,0-26.22,6.55-26.22,18.72v56.65c0,12.17,13.58,18,26.92,18s26.68-6.09,26.68-18V125.08C552.79,112.21,539,106.36,525.41,106.36Z"/><path class="cls-1" d="M369.75,106.36c-13.11,0-26.22,6.55-26.22,18.72v56.65c0,12.17,13.58,18,26.92,18s26.68-6.09,26.68-18V125.08C397.13,112.21,383.33,106.36,369.75,106.36Z"/><path class="cls-1" d="M735.29,42H102l88.34,108.6L109.07,257.08H735.29ZM281.09,236.27H239V178.92l-1.4-1.87-42.37,59.22H142.05l65.31-85.67L141.82,70.55H194L239,131.87V70.55h42.13ZM439,181.73c0,37.92-34.17,56.88-68.58,56.88s-68.82-19-68.82-56.88V125.08c0-38.15,34.17-56.88,68.58-56.88S439,87.17,439,125.08Zm155.66,0c0,37.92-34.17,56.88-68.58,56.88s-68.82-19-68.82-56.88V125.08c0-38.15,34.17-56.88,68.58-56.88s68.82,19,68.82,56.88Zm127.84,54.54H613V194.84H680.4V70.55h42.13Z"/></g></g></svg>